# 3ds Max Wavefront OBJ Exporter v0.97b - (c)2007 guruware
# 创建的文件:22.02.2017 16:31:52

mtllib garage.mtl

#
# object Box04
#

v  10.1946 0.0007 -9.6988
v  -10.1935 0.0007 -9.6988
v  -10.1935 0.0007 -10.0909
v  10.1946 0.0007 -10.0909
v  10.1946 10.0953 -9.6988
v  10.1946 10.0953 -10.0909
v  -10.1935 10.0953 -10.0909
v  -10.1935 10.0953 -9.6988
# 8 vertices

vn -0.0000 -1.0000 -0.0000
vn 0.0000 1.0000 -0.0000
vn 1.0000 -0.0000 -0.0000
vn -0.0000 -0.0000 -1.0000
vn -1.0000 -0.0000 0.0000
vn 0.0000 -0.0000 1.0000
# 6 vertex normals

vt 0.5193 -0.5097 0.0000
vt 0.5193 1.5097 0.0000
vt 0.4807 1.5097 0.0000
vt 0.4807 -0.5097 0.0000
vt 0.4807 0.0024 0.0000
vt 0.5193 0.0024 0.0000
vt 0.5193 0.9976 0.0000
vt 0.4807 0.9976 0.0000
vt -0.5097 0.0024 0.0000
vt 1.5097 0.0024 0.0000
vt 1.5097 0.9976 0.0000
vt -0.5097 0.9976 0.0000
# 12 texture coords

g Box04
usemtl Material__7
s 2
f 1/1/1 2/2/1 3/3/1 4/4/1 
s 4
f 5/4/2 6/1/2 7/2/2 8/3/2 
s 8
f 1/5/3 4/6/3 6/7/3 
f 6/7/3 5/8/3 1/5/3 
s 16
f 4/9/4 3/10/4 7/11/4 
f 7/11/4 6/12/4 4/9/4 
s 32
f 3/5/5 2/6/5 8/7/5 
f 8/7/5 7/8/5 3/5/5 
s 64
f 2/9/6 1/10/6 5/11/6 
f 5/11/6 8/12/6 2/9/6 
# 2 polygons - 8 triangles

#
# object Box02
#

v  -10.2013 0.0007 9.7075
v  -10.2013 0.0007 -9.7012
v  -9.8092 0.0007 -9.7012
v  -9.8092 0.0007 9.7075
v  -10.2013 10.0953 9.7075
v  -9.8092 10.0953 9.7075
v  -9.8092 10.0953 -9.7012
v  -10.2013 10.0953 -9.7012
# 8 vertices

vn -0.0000 -1.0000 0.0000
vn 0.0000 1.0000 -0.0000
vn -0.0000 0.0000 1.0000
vn 1.0000 0.0000 0.0000
vn 0.0000 -0.0000 -1.0000
vn -1.0000 -0.0000 -0.0000
# 6 vertex normals

vt 0.5193 -0.5097 0.0000
vt 0.5193 1.5097 0.0000
vt 0.4807 1.5097 0.0000
vt 0.4807 -0.5097 0.0000
vt 0.4807 0.0024 0.0000
vt 0.5193 0.0024 0.0000
vt 0.5193 0.9976 0.0000
vt 0.4807 0.9976 0.0000
vt -0.5097 0.0024 0.0000
vt 1.5097 0.0024 0.0000
vt 1.5097 0.9976 0.0000
vt -0.5097 0.9976 0.0000
# 12 texture coords

g Box02
usemtl Material__4
s 2
f 9/13/7 10/14/7 11/15/7 12/16/7 
s 4
f 13/16/8 14/13/8 15/14/8 16/15/8 
s 8
f 9/17/9 12/18/9 14/19/9 
f 14/19/9 13/20/9 9/17/9 
s 16
f 12/21/10 11/22/10 15/23/10 
f 15/23/10 14/24/10 12/21/10 
s 32
f 11/17/11 10/18/11 16/19/11 
f 16/19/11 15/20/11 11/17/11 
s 64
f 10/21/12 9/22/12 13/23/12 
f 13/23/12 16/24/12 10/21/12 
# 2 polygons - 8 triangles

#
# object Box01
#

v  -10.1899 0.0007 -10.0970
v  -10.1899 0.0007 10.0923
v  10.1955 0.0007 10.0923
v  10.1955 0.0007 -10.0970
v  10.1955 -0.1953 10.0923
v  -10.1899 -0.1953 10.0923
v  -10.1899 -0.1953 -10.0970
v  10.1955 -0.1953 -10.0970
# 8 vertices

vn 0.0000 1.0000 -0.0000
vn -0.0000 -1.0000 0.0000
vn -0.0000 0.0000 1.0000
vn 1.0000 0.0000 0.0000
vn 0.0000 -0.0000 -1.0000
vn -1.0000 0.0000 -0.0000
vn -1.0000 -0.0000 -0.0000
# 7 vertex normals

vt -0.0097 3.9903 0.0000
vt -0.0097 0.0097 0.0000
vt 4.0097 0.0097 0.0000
vt 4.0097 3.9903 0.0000
vt 4.0097 2.0193 0.0000
vt -0.0097 2.0193 0.0000
vt 4.0097 1.9807 0.0000
vt -0.0097 1.9807 0.0000
vt 3.9903 2.0193 0.0000
vt 0.0097 2.0193 0.0000
vt 3.9903 1.9807 0.0000
vt 0.0097 1.9807 0.0000
# 12 texture coords

g Box01
usemtl Material__11
s 2
f 17/25/13 18/26/13 19/27/13 20/28/13 
s 4
f 21/26/14 22/27/14 23/28/14 24/25/14 
s 8
f 19/29/15 18/30/15 21/31/15 
f 22/32/15 21/31/15 18/30/15 
s 16
f 20/33/16 19/34/16 24/35/16 
f 21/36/16 24/35/16 19/34/16 
s 32
f 17/29/17 20/30/17 23/31/17 
f 24/32/17 23/31/17 20/30/17 
s 64
f 18/33/18 17/34/18 22/35/18 
f 23/36/19 22/35/19 17/34/19 
# 2 polygons - 8 triangles

#
# object Box09
#

v  -10.2013 0.0007 9.7050
v  10.2013 0.0007 9.7050
v  10.2013 0.0007 10.0970
v  -10.2013 0.0007 10.0970
v  -10.2013 10.0953 9.7050
v  -10.2013 10.0953 10.0970
v  10.2013 10.0953 10.0970
v  10.2013 10.0953 9.7050
# 8 vertices

vn -0.0000 -1.0000 0.0000
vn 0.0000 1.0000 0.0000
vn -1.0000 0.0000 -0.0000
vn -0.0000 -0.0000 1.0000
vn 1.0000 -0.0000 0.0000
vn 0.0000 0.0000 -1.0000
vn 0.0000 -0.0000 -1.0000
# 7 vertex normals

vt 0.5193 -0.5097 0.0000
vt 0.5193 1.5097 0.0000
vt 0.4807 1.5097 0.0000
vt 0.4807 -0.5097 0.0000
vt 0.4807 0.0024 0.0000
vt 0.5193 0.0024 0.0000
vt 0.5193 0.9976 0.0000
vt 0.4807 0.9976 0.0000
vt -0.5097 0.0024 0.0000
vt 1.5097 0.0024 0.0000
vt 1.5097 0.9976 0.0000
vt -0.5097 0.9976 0.0000
# 12 texture coords

g Box09
usemtl Material__8
s 2
f 25/37/20 26/38/20 27/39/20 28/40/20 
s 4
f 29/40/21 30/37/21 31/38/21 32/39/21 
s 8
f 25/41/22 28/42/22 30/43/22 
f 30/43/22 29/44/22 25/41/22 
s 16
f 28/45/23 27/46/23 31/47/23 
f 31/47/23 30/48/23 28/45/23 
s 32
f 27/41/24 26/42/24 32/43/24 
f 32/43/24 31/44/24 27/41/24 
s 64
f 26/45/25 25/46/25 29/47/25 
f 29/47/26 32/48/26 26/45/26 
# 2 polygons - 8 triangles

#
# object Box07
#

v  -8.1041 0.4050 -7.7201
v  -8.3935 0.4050 -8.0045
v  -8.1091 0.4050 -8.2939
v  -7.8197 0.4050 -8.0095
v  -8.1041 0.8108 -7.7201
v  -7.8197 0.8108 -8.0095
v  -8.1091 0.8108 -8.2939
v  -8.3935 0.8108 -8.0045
# 8 vertices

vn 0.0000 -1.0000 -0.0000
vn -0.0000 1.0000 -0.0000
vn 0.7133 -0.0000 0.7009
vn 0.7009 -0.0000 -0.7133
vn -0.7133 0.0000 -0.7009
vn -0.7009 0.0000 0.7133
# 6 vertex normals

vt 0.9995 0.0005 0.0000
vt 0.9995 0.9995 0.0000
vt 0.0005 0.9995 0.0000
vt 0.0005 0.0005 0.0000
# 4 texture coords

g Box07
usemtl Material__2
s 2
f 33/49/27 34/50/27 35/51/27 36/52/27 
s 4
f 37/52/28 38/49/28 39/50/28 40/51/28 
s 8
f 33/52/29 36/49/29 38/50/29 
f 38/50/29 37/51/29 33/52/29 
s 16
f 36/52/30 35/49/30 39/50/30 
f 39/50/30 38/51/30 36/52/30 
s 32
f 35/52/31 34/49/31 40/50/31 
f 40/50/31 39/51/31 35/52/31 
s 64
f 34/52/32 33/49/32 37/50/32 
f 37/50/32 40/51/32 34/52/32 
# 2 polygons - 8 triangles

#
# object Box05
#

v  -8.4373 0.0002 -7.5679
v  -8.6463 0.0002 -7.9157
v  -8.2985 0.0002 -8.1246
v  -8.0895 0.0002 -7.7768
v  -8.4373 0.4059 -7.5679
v  -8.0895 0.4059 -7.7768
v  -8.2985 0.4059 -8.1246
v  -8.6463 0.4059 -7.9157
# 8 vertices

vn -0.0000 -1.0000 0.0000
vn 0.0000 1.0000 -0.0000
vn 0.5150 -0.0000 0.8572
vn 0.8572 -0.0000 -0.5150
vn 0.8572 0.0000 -0.5150
vn -0.5150 -0.0000 -0.8572
vn -0.8572 -0.0000 0.5150
vn -0.8572 0.0000 0.5150
# 8 vertex normals

vt 0.9995 0.0005 0.0000
vt 0.9995 0.9995 0.0000
vt 0.0005 0.9995 0.0000
vt 0.0005 0.0005 0.0000
# 4 texture coords

g Box05
usemtl Material__0
s 2
f 41/53/33 42/54/33 43/55/33 44/56/33 
s 4
f 45/56/34 46/53/34 47/54/34 48/55/34 
s 8
f 41/56/35 44/53/35 46/54/35 
f 46/54/35 45/55/35 41/56/35 
s 16
f 44/56/36 43/53/36 47/54/36 
f 47/54/37 46/55/37 44/56/37 
s 32
f 43/56/38 42/53/38 48/54/38 
f 48/54/38 47/55/38 43/56/38 
s 64
f 42/56/39 41/53/39 45/54/39 
f 45/54/40 48/55/40 42/56/40 
# 2 polygons - 8 triangles

#
# object Box06
#

v  -7.9813 0.0002 -7.8783
v  -8.1687 0.0002 -8.2382
v  -7.8088 0.0002 -8.4256
v  -7.6214 0.0002 -8.0657
v  -7.9813 0.4059 -7.8783
v  -7.6214 0.4059 -8.0657
v  -7.8088 0.4059 -8.4256
v  -8.1687 0.4059 -8.2382
# 8 vertices

vn -0.0000 -1.0000 0.0000
vn 0.0000 1.0000 -0.0000
vn 0.0000 1.0000 0.0000
vn -0.0000 1.0000 -0.0000
vn 0.4617 -0.0000 0.8870
vn 0.8870 -0.0000 -0.4617
vn -0.4617 0.0000 -0.8870
vn -0.8870 0.0000 0.4617
# 8 vertex normals

vt 0.9995 0.0005 0.0000
vt 0.9995 0.9995 0.0000
vt 0.0005 0.9995 0.0000
vt 0.0005 0.0005 0.0000
# 4 texture coords

g Box06
usemtl Material__1
s 2
f 49/57/41 50/58/41 51/59/41 52/60/41 
s 4
f 53/60/42 54/57/43 55/58/42 56/59/44 
s 8
f 49/60/45 52/57/45 54/58/45 
f 54/58/45 53/59/45 49/60/45 
s 16
f 52/60/46 51/57/46 55/58/46 
f 55/58/46 54/59/46 52/60/46 
s 32
f 51/60/47 50/57/47 56/58/47 
f 56/58/47 55/59/47 51/60/47 
s 64
f 50/60/48 49/57/48 53/58/48 
f 53/58/48 56/59/48 50/60/48 
# 2 polygons - 8 triangles

